<svg width="300" height="300" viewBox="0 0 300 300" fill="none" xmlns="http://www.w3.org/2000/svg">
<rect width="300" height="300" fill="black"/>
<g clip-path="url(#clip0_13_7)">
<path d="M170.588 61.7647H229.412C230.972 61.7647 232.468 62.3844 233.571 63.4876C234.674 64.5907 235.294 66.0869 235.294 67.647V126.471C235.294 128.031 234.674 129.527 233.571 130.63C232.468 131.733 230.972 132.353 229.412 132.353H170.588C169.028 132.353 167.532 131.733 166.429 130.63C165.326 129.527 164.706 128.031 164.706 126.471V67.647C164.706 66.0869 165.326 64.5907 166.429 63.4876C167.532 62.3844 169.028 61.7647 170.588 61.7647ZM61.7647 176.471H120.588C122.148 176.471 123.645 177.09 124.748 178.193C125.851 179.297 126.471 180.793 126.471 182.353V241.176C126.471 242.737 125.851 244.233 124.748 245.336C123.645 246.439 122.148 247.059 120.588 247.059H61.7647C60.2046 247.059 58.7084 246.439 57.6053 245.336C56.5021 244.233 55.8824 242.737 55.8824 241.176V182.353C55.8824 180.793 56.5021 179.297 57.6053 178.193C58.7084 177.09 60.2046 176.471 61.7647 176.471ZM208.024 167.624L249.2 238.212C251.485 242.135 248.659 247.059 244.118 247.059H161.765C157.224 247.059 154.397 242.135 156.682 238.212L197.859 167.624C200.129 163.732 205.753 163.732 208.024 167.624ZM94.1176 52.9412C118.482 52.9412 138.235 72.6941 138.235 97.0588C138.235 121.424 118.482 141.176 94.1176 141.176C69.7529 141.176 50 121.424 50 97.0588C50 72.6941 69.7529 52.9412 94.1176 52.9412Z" fill="white"/>
</g>
<defs>
<clipPath id="clip0_13_7">
<rect width="200" height="200" fill="white" transform="translate(50 50)"/>
</clipPath>
</defs>
</svg>
